<?xml version="1.0" encoding="UTF-8"?>
<!DOCTYPE svg PUBLIC "-//W3C//DTD SVG 1.1//EN" "http://www.w3.org/Graphics/SVG/1.1/DTD/svg11.dtd">
<!-- Creator: CorelDRAW X7 -->
<svg xmlns="http://www.w3.org/2000/svg" xml:space="preserve" width="6317px" height="7190px" version="1.1" style="shape-rendering:geometricPrecision; text-rendering:geometricPrecision; image-rendering:optimizeQuality; fill-rule:evenodd; clip-rule:evenodd"
viewBox="0 0 8786 10001"
 xmlns:xlink="http://www.w3.org/1999/xlink">
 <defs>
  <style type="text/css">
   <![CDATA[
    .fil0 {fill:#FEFEFE}
   ]]>
  </style>
 </defs>
 <g id="图层_x0020_1">
  <metadata id="CorelCorpID_0Corel-Layer"/>
  <g id="_1890460532080">
   <path class="fil0" d="M4822 6166c0,315 86,614 193,827 63,125 114,208 194,316 21,28 34,46 56,71l183 200 -4926 0c0,-423 162,-965 301,-1252 163,-336 202,-408 447,-723 101,-130 262,-282 385,-392 22,-20 29,-21 51,-41 113,-98 281,-207 411,-284 267,-160 518,-249 823,-349 522,-171 1277,-110 1776,52 113,37 93,18 120,147 23,111 136,588 136,663 0,25 -42,132 -53,167 -22,63 -35,116 -51,181 -28,115 -46,275 -46,417zm3419 -1657c-2,73 -190,857 -212,959 -25,121 -48,102 -4,230 29,86 46,150 62,240 84,474 -115,989 -462,1270 -32,26 -39,36 -77,62 -391,264 -822,348 -1285,190 -145,-49 -272,-123 -382,-209 -442,-346 -635,-913 -473,-1484 39,-138 50,-92 19,-241l-94 -497c-14,-128 -93,-460 -94,-497 37,10 86,48 116,70l595 391c32,14 26,12 56,-5 481,-282 1047,-268 1458,8 66,-35 124,-79 193,-121 79,-48 521,-350 584,-366zm0 0l0 0zm-3547 -452c-461,-108 -561,-128 -1055,-128 -791,0 -1677,345 -2269,861 -26,23 -37,26 -63,52l-238 226c-273,270 -603,768 -743,1111 -212,519 -326,955 -326,1552 0,74 18,102 22,163 22,307 101,484 261,725 136,206 410,422 633,538 179,93 359,157 569,218 208,62 415,89 656,121 216,30 540,43 745,43 79,1 106,-12 185,-12l279 -10c98,-8 191,-3 286,-16 243,-32 1182,-162 1351,70 63,86 -63,208 85,356 119,119 303,84 383,-33 128,-189 76,-607 -247,-799 -291,-174 -573,-170 -919,-170 -231,0 -692,84 -928,81l-324 11c-647,0 -1093,-4 -1679,-221 -311,-115 -711,-392 -790,-729 2069,0 4157,-10 6224,0 357,2 665,-116 957,-295 706,-432 1067,-1377 795,-2187 -73,-218 -82,-124 14,-504 37,-142 228,-937 228,-1071 0,-43 -41,-107 -66,-131 -144,-130 -302,-1 -426,80l-749 469c-70,0 -547,-295 -1277,-119 -494,119 -234,227 -609,-23l-235 -160c-77,-51 -159,-102 -235,-159 -119,-89 -300,-229 -439,-75 -38,43 -56,86 -56,165z"/>
   <path class="fil0" d="M6143 2028c113,-26 56,-46 243,-46 187,0 343,147 391,294 126,384 -323,320 -775,887 -52,66 -102,128 -149,198 -32,-23 -110,-146 -153,-194 -24,-26 -31,-39 -53,-64 -188,-213 -295,-281 -512,-425 -216,-144 -232,-140 -232,-337 0,-156 203,-359 405,-359 222,0 306,73 438,234 171,209 128,334 339,334 61,0 99,-21 131,-54 156,-158 -1,-331 -73,-468zm-1669 348c0,145 14,203 73,321 166,330 553,328 910,852 61,90 142,233 237,284 134,72 298,38 388,-69l151 -208c327,-480 648,-507 841,-747 241,-301 164,-665 -57,-948 -224,-288 -687,-400 -1064,-208 -216,111 -7,66 -327,-46 -586,-206 -1152,244 -1152,769z"/>
   <path class="fil0" d="M3802 406c111,-10 216,-46 339,77 72,72 136,224 34,307 -32,26 -65,49 -102,73 -201,130 -201,129 -384,311l-165 194c-23,-17 -60,-69 -80,-95 -27,-33 -48,-62 -80,-94 -178,-178 -167,-168 -383,-312 -70,-47 -164,-83 -164,-195 0,-136 143,-278 278,-278 169,0 239,46 348,197 81,113 93,244 254,244 104,0 174,-77 192,-169 13,-70 -30,-134 -60,-194 -15,-29 -16,-42 -27,-66zm-733 -406l85 0c209,13 361,117 370,116 0,0 145,-102 351,-116l91 0c77,5 160,24 245,65 213,103 402,348 402,572 0,436 -234,459 -520,686 -154,122 -219,238 -326,381 -17,22 -40,59 -61,78 -73,67 -201,96 -314,41 -79,-38 -135,-149 -191,-225 -261,-352 -267,-264 -580,-510 -176,-138 -187,-278 -187,-474 0,-165 126,-351 217,-431 144,-127 289,-175 418,-183z"/>
   <path class="fil0" d="M6746 6954c115,0 191,-148 260,-250 37,-55 65,-109 37,-185 -57,-147 -221,-109 -436,-109 -112,0 -235,121 -126,287 36,55 68,96 105,151 33,50 81,106 160,106z"/>
   <path class="fil0" d="M7070 5853c0,55 9,87 39,124 180,219 698,133 709,-104 4,-87 -54,-149 -132,-173 -108,-33 -117,61 -268,61 -72,0 -106,-86 -212,-62 -64,14 -136,83 -136,154z"/>
   <path class="fil0" d="M5691 5842l0 46c0,130 291,316 607,155 241,-123 120,-324 -11,-346 -91,-16 -133,64 -248,64 -74,0 -110,-82 -204,-66 -70,12 -144,71 -144,147z"/>
  </g>
 </g>
</svg>
